<?xml version="1.0" encoding="utf-8"?>
<!-- Generator: Adobe Illustrator 24.1.1, SVG Export Plug-In . SVG Version: 6.00 Build 0)  -->
<svg version="1.1" id="Capa_1" xmlns="http://www.w3.org/2000/svg" xmlns:xlink="http://www.w3.org/1999/xlink" x="0px" y="0px"
	 viewBox="0 0 512 512" style="enable-background:new 0 0 512 512;" xml:space="preserve">
<style type="text/css">
	.st0{fill:#F0DE86;}
</style>
<g>
	<g>
		<path class="st0" d="M430.7,337.3c-26.9-26.9-58.9-46.8-93.9-58.9c37.4-25.8,62-68.9,62-117.7C398.8,82.1,334.7,18,256,18
			S113.2,82.1,113.2,160.8c0,48.8,24.6,91.9,62,117.7c-34.9,12.1-67,32-93.9,58.9C34.7,384,9,446,9,512h38.6
			c0-114.9,93.5-208.4,208.4-208.4S464.4,397.1,464.4,512H503C503,446,477.3,384,430.7,337.3z M256,265
			c-57.5,0-104.2-46.7-104.2-104.2S198.5,56.6,256,56.6s104.2,46.7,104.2,104.2S313.5,265,256,265z"/>
	</g>
</g>
</svg>
